# xmcd
#
# Track frame offsets: 
#        150
#        17228
#        33023
#        52698
#        67177
#        90786
#        112502
#        129714
#        150204
#        175442
#
# Disc length: 2541 seconds
#
# Revision: 0
# Processed by: cddbd v1.5.2PL0 Copyright (c) Steve Scherf et al.
# Submitted via: ExactAudioCopy v1.3
#
DISCID=6809eb0a
DTITLE=Brent Parkin - Beep Beep
DYEAR=1989
DGENRE=Blues
TTITLE0=Road Runner
TTITLE1=Satllite Dish
TTITLE2=Parrot Walk
TTITLE3=I Got to Find My Baby
TTITLE4=3-D Blues
TTITLE5=Cold Wind
TTITLE6=Georgia Slop
TTITLE7=Huckle Boogie
TTITLE8=Night Crawler
TTITLE9=Hard Hearted Woman
EXTD=
EXTT0=
EXTT1=
EXTT2=
EXTT3=
EXTT4=
EXTT5=
EXTT6=
EXTT7=
EXTT8=
EXTT9=
PLAYORDER=
